<svg id="visual" viewBox="0 0 900 450" width="900" height="450" xmlns="http://www.w3.org/2000/svg" xmlns:xlink="http://www.w3.org/1999/xlink" version="1.1"><rect x="0" y="0" width="900" height="450" fill="#89ccff"></rect><path d="M0 293L21.5 300C43 307 86 321 128.8 321.2C171.7 321.3 214.3 307.7 257.2 301.5C300 295.3 343 296.7 385.8 303.3C428.7 310 471.3 322 514.2 326.8C557 331.7 600 329.3 642.8 321.5C685.7 313.7 728.3 300.3 771.2 290.3C814 280.3 857 273.7 878.5 270.3L900 267L900 451L878.5 451C857 451 814 451 771.2 451C728.3 451 685.7 451 642.8 451C600 451 557 451 514.2 451C471.3 451 428.7 451 385.8 451C343 451 300 451 257.2 451C214.3 451 171.7 451 128.8 451C86 451 43 451 21.5 451L0 451Z" fill="#fa7268"></path><path d="M0 298L21.5 299.5C43 301 86 304 128.8 304.3C171.7 304.7 214.3 302.3 257.2 309.7C300 317 343 334 385.8 334.2C428.7 334.3 471.3 317.7 514.2 312.3C557 307 600 313 642.8 322.2C685.7 331.3 728.3 343.7 771.2 346.2C814 348.7 857 341.3 878.5 337.7L900 334L900 451L878.5 451C857 451 814 451 771.2 451C728.3 451 685.7 451 642.8 451C600 451 557 451 514.2 451C471.3 451 428.7 451 385.8 451C343 451 300 451 257.2 451C214.3 451 171.7 451 128.8 451C86 451 43 451 21.5 451L0 451Z" fill="#fd6053"></path><path d="M0 382L21.5 373C43 364 86 346 128.8 345.2C171.7 344.3 214.3 360.7 257.2 365C300 369.3 343 361.7 385.8 355.5C428.7 349.3 471.3 344.7 514.2 348C557 351.3 600 362.7 642.8 369.5C685.7 376.3 728.3 378.7 771.2 377.8C814 377 857 373 878.5 371L900 369L900 451L878.5 451C857 451 814 451 771.2 451C728.3 451 685.7 451 642.8 451C600 451 557 451 514.2 451C471.3 451 428.7 451 385.8 451C343 451 300 451 257.2 451C214.3 451 171.7 451 128.8 451C86 451 43 451 21.5 451L0 451Z" fill="#ff4c3d"></path><path d="M0 372L21.5 371.3C43 370.7 86 369.3 128.8 367.8C171.7 366.3 214.3 364.7 257.2 370.3C300 376 343 389 385.8 389.8C428.7 390.7 471.3 379.3 514.2 378.8C557 378.3 600 388.7 642.8 395.2C685.7 401.7 728.3 404.3 771.2 399.7C814 395 857 383 878.5 377L900 371L900 451L878.5 451C857 451 814 451 771.2 451C728.3 451 685.7 451 642.8 451C600 451 557 451 514.2 451C471.3 451 428.7 451 385.8 451C343 451 300 451 257.2 451C214.3 451 171.7 451 128.8 451C86 451 43 451 21.5 451L0 451Z" fill="#ff3325"></path><path d="M0 410L21.5 412C43 414 86 418 128.8 418.2C171.7 418.3 214.3 414.7 257.2 413.7C300 412.7 343 414.3 385.8 413.2C428.7 412 471.3 408 514.2 405.3C557 402.7 600 401.3 642.8 399.8C685.7 398.3 728.3 396.7 771.2 400C814 403.3 857 411.7 878.5 415.8L900 420L900 451L878.5 451C857 451 814 451 771.2 451C728.3 451 685.7 451 642.8 451C600 451 557 451 514.2 451C471.3 451 428.7 451 385.8 451C343 451 300 451 257.2 451C214.3 451 171.7 451 128.8 451C86 451 43 451 21.5 451L0 451Z" fill="#ff0000"></path></svg>