<svg id="visual" viewBox="0 0 1000 675" width="1000" height="675" xmlns="http://www.w3.org/2000/svg" xmlns:xlink="http://www.w3.org/1999/xlink" version="1.1"><rect x="0" y="0" width="1000" height="675" fill="#fff"></rect><path d="M0 88L23.8 92.3C47.7 96.7 95.3 105.3 143 108.2C190.7 111 238.3 108 286 101.3C333.7 94.7 381.3 84.3 428.8 83.5C476.3 82.7 523.7 91.3 571.2 96C618.7 100.7 666.3 101.3 714 103C761.7 104.7 809.3 107.3 857 106.3C904.7 105.3 952.3 100.7 976.2 98.3L1000 96L1000 0L976.2 0C952.3 0 904.7 0 857 0C809.3 0 761.7 0 714 0C666.3 0 618.7 0 571.2 0C523.7 0 476.3 0 428.8 0C381.3 0 333.7 0 286 0C238.3 0 190.7 0 143 0C95.3 0 47.7 0 23.8 0L0 0Z" fill="#f7770f"></path><path d="M0 83L23.8 85.2C47.7 87.3 95.3 91.7 143 89.5C190.7 87.3 238.3 78.7 286 75.3C333.7 72 381.3 74 428.8 76.3C476.3 78.7 523.7 81.3 571.2 80C618.7 78.7 666.3 73.3 714 73.3C761.7 73.3 809.3 78.7 857 79.8C904.7 81 952.3 78 976.2 76.5L1000 75L1000 0L976.2 0C952.3 0 904.7 0 857 0C809.3 0 761.7 0 714 0C666.3 0 618.7 0 571.2 0C523.7 0 476.3 0 428.8 0C381.3 0 333.7 0 286 0C238.3 0 190.7 0 143 0C95.3 0 47.7 0 23.8 0L0 0Z" fill="#f76923"></path><path d="M0 87L23.8 84.7C47.7 82.3 95.3 77.7 143 74.7C190.7 71.7 238.3 70.3 286 71C333.7 71.7 381.3 74.3 428.8 76.5C476.3 78.7 523.7 80.3 571.2 77.7C618.7 75 666.3 68 714 64.2C761.7 60.3 809.3 59.7 857 64C904.7 68.3 952.3 77.7 976.2 82.3L1000 87L1000 0L976.2 0C952.3 0 904.7 0 857 0C809.3 0 761.7 0 714 0C666.3 0 618.7 0 571.2 0C523.7 0 476.3 0 428.8 0C381.3 0 333.7 0 286 0C238.3 0 190.7 0 143 0C95.3 0 47.7 0 23.8 0L0 0Z" fill="#f55c31"></path><path d="M0 70L23.8 66.5C47.7 63 95.3 56 143 53.2C190.7 50.3 238.3 51.7 286 52.2C333.7 52.7 381.3 52.3 428.8 53.3C476.3 54.3 523.7 56.7 571.2 59.8C618.7 63 666.3 67 714 66.8C761.7 66.7 809.3 62.3 857 62.7C904.7 63 952.3 68 976.2 70.5L1000 73L1000 0L976.2 0C952.3 0 904.7 0 857 0C809.3 0 761.7 0 714 0C666.3 0 618.7 0 571.2 0C523.7 0 476.3 0 428.8 0C381.3 0 333.7 0 286 0C238.3 0 190.7 0 143 0C95.3 0 47.7 0 23.8 0L0 0Z" fill="#f14f3d"></path><path d="M0 61L23.8 57.7C47.7 54.3 95.3 47.7 143 46.7C190.7 45.7 238.3 50.3 286 50.8C333.7 51.3 381.3 47.7 428.8 47.7C476.3 47.7 523.7 51.3 571.2 51.2C618.7 51 666.3 47 714 48C761.7 49 809.3 55 857 57.5C904.7 60 952.3 59 976.2 58.5L1000 58L1000 0L976.2 0C952.3 0 904.7 0 857 0C809.3 0 761.7 0 714 0C666.3 0 618.7 0 571.2 0C523.7 0 476.3 0 428.8 0C381.3 0 333.7 0 286 0C238.3 0 190.7 0 143 0C95.3 0 47.7 0 23.8 0L0 0Z" fill="#ec4347"></path><path d="M0 34L23.8 36C47.7 38 95.3 42 143 44.5C190.7 47 238.3 48 286 47.8C333.7 47.7 381.3 46.3 428.8 45.7C476.3 45 523.7 45 571.2 45.7C618.7 46.3 666.3 47.7 714 47.7C761.7 47.7 809.3 46.3 857 44.3C904.7 42.3 952.3 39.7 976.2 38.3L1000 37L1000 0L976.2 0C952.3 0 904.7 0 857 0C809.3 0 761.7 0 714 0C666.3 0 618.7 0 571.2 0C523.7 0 476.3 0 428.8 0C381.3 0 333.7 0 286 0C238.3 0 190.7 0 143 0C95.3 0 47.7 0 23.8 0L0 0Z" fill="#e53850"></path><path d="M0 35L23.8 34.8C47.7 34.7 95.3 34.3 143 35.5C190.7 36.7 238.3 39.3 286 40C333.7 40.7 381.3 39.3 428.8 37.7C476.3 36 523.7 34 571.2 34.2C618.7 34.3 666.3 36.7 714 38C761.7 39.3 809.3 39.7 857 37.3C904.7 35 952.3 30 976.2 27.5L1000 25L1000 0L976.2 0C952.3 0 904.7 0 857 0C809.3 0 761.7 0 714 0C666.3 0 618.7 0 571.2 0C523.7 0 476.3 0 428.8 0C381.3 0 333.7 0 286 0C238.3 0 190.7 0 143 0C95.3 0 47.7 0 23.8 0L0 0Z" fill="#dc2f59"></path><path d="M0 30L23.8 29.5C47.7 29 95.3 28 143 25.8C190.7 23.7 238.3 20.3 286 20.5C333.7 20.7 381.3 24.3 428.8 25.7C476.3 27 523.7 26 571.2 24.8C618.7 23.7 666.3 22.3 714 21.5C761.7 20.7 809.3 20.3 857 19.7C904.7 19 952.3 18 976.2 17.5L1000 17L1000 0L976.2 0C952.3 0 904.7 0 857 0C809.3 0 761.7 0 714 0C666.3 0 618.7 0 571.2 0C523.7 0 476.3 0 428.8 0C381.3 0 333.7 0 286 0C238.3 0 190.7 0 143 0C95.3 0 47.7 0 23.8 0L0 0Z" fill="#d22761"></path><path d="M0 9L23.8 10C47.7 11 95.3 13 143 12.8C190.7 12.7 238.3 10.3 286 11C333.7 11.7 381.3 15.3 428.8 16C476.3 16.7 523.7 14.3 571.2 14C618.7 13.7 666.3 15.3 714 15.5C761.7 15.7 809.3 14.3 857 12.7C904.7 11 952.3 9 976.2 8L1000 7L1000 0L976.2 0C952.3 0 904.7 0 857 0C809.3 0 761.7 0 714 0C666.3 0 618.7 0 571.2 0C523.7 0 476.3 0 428.8 0C381.3 0 333.7 0 286 0C238.3 0 190.7 0 143 0C95.3 0 47.7 0 23.8 0L0 0Z" fill="#c62368"></path></svg>