<svg id="visual" viewBox="0 0 1000 675" width="1000" height="675" xmlns="http://www.w3.org/2000/svg" xmlns:xlink="http://www.w3.org/1999/xlink" version="1.1"><rect x="0" y="0" width="1000" height="675" fill="#fff"></rect><path d="M132 0L138.5 16C145 32 158 64 162.3 96.2C166.7 128.3 162.3 160.7 152.5 192.8C142.7 225 127.3 257 126 289.2C124.7 321.3 137.3 353.7 144.3 385.8C151.3 418 152.7 450 155.2 482.2C157.7 514.3 161.3 546.7 159.8 578.8C158.3 611 151.7 643 148.3 659L145 675L0 675L0 659C0 643 0 611 0 578.8C0 546.7 0 514.3 0 482.2C0 450 0 418 0 385.8C0 353.7 0 321.3 0 289.2C0 257 0 225 0 192.8C0 160.7 0 128.3 0 96.2C0 64 0 32 0 16L0 0Z" fill="#f7770f"></path><path d="M125 0L128.2 16C131.3 32 137.7 64 134.5 96.2C131.3 128.3 118.7 160.7 113.8 192.8C109 225 112 257 115.3 289.2C118.7 321.3 122.3 353.7 120.3 385.8C118.3 418 110.7 450 110.8 482.2C111 514.3 119 546.7 120.8 578.8C122.7 611 118.3 643 116.2 659L114 675L0 675L0 659C0 643 0 611 0 578.8C0 546.7 0 514.3 0 482.2C0 450 0 418 0 385.8C0 353.7 0 321.3 0 289.2C0 257 0 225 0 192.8C0 160.7 0 128.3 0 96.2C0 64 0 32 0 16L0 0Z" fill="#f76923"></path><path d="M132 0L128.5 16C125 32 118 64 113.5 96.2C109 128.3 107 160.7 107.8 192.8C108.7 225 112.3 257 115.7 289.2C119 321.3 122 353.7 118.3 385.8C114.7 418 104.3 450 98.5 482.2C92.7 514.3 91.3 546.7 97.5 578.8C103.7 611 117.3 643 124.2 659L131 675L0 675L0 659C0 643 0 611 0 578.8C0 546.7 0 514.3 0 482.2C0 450 0 418 0 385.8C0 353.7 0 321.3 0 289.2C0 257 0 225 0 192.8C0 160.7 0 128.3 0 96.2C0 64 0 32 0 16L0 0Z" fill="#f55c31"></path><path d="M106 0L101 16C96 32 86 64 81.8 96.2C77.7 128.3 79.3 160.7 80 192.8C80.7 225 80.3 257 81.8 289.2C83.3 321.3 86.7 353.7 91.3 385.8C96 418 102 450 101.7 482.2C101.3 514.3 94.7 546.7 95 578.8C95.3 611 102.7 643 106.3 659L110 675L0 675L0 659C0 643 0 611 0 578.8C0 546.7 0 514.3 0 482.2C0 450 0 418 0 385.8C0 353.7 0 321.3 0 289.2C0 257 0 225 0 192.8C0 160.7 0 128.3 0 96.2C0 64 0 32 0 16L0 0Z" fill="#f14f3d"></path><path d="M93 0L88.2 16C83.3 32 73.7 64 72.3 96.2C71 128.3 78 160.7 78.7 192.8C79.3 225 73.7 257 73.7 289.2C73.7 321.3 79.3 353.7 79 385.8C78.7 418 72.3 450 73.5 482.2C74.7 514.3 83.3 546.7 87.2 578.8C91 611 90 643 89.5 659L89 675L0 675L0 659C0 643 0 611 0 578.8C0 546.7 0 514.3 0 482.2C0 450 0 418 0 385.8C0 353.7 0 321.3 0 289.2C0 257 0 225 0 192.8C0 160.7 0 128.3 0 96.2C0 64 0 32 0 16L0 0Z" fill="#ec4347"></path><path d="M53 0L55.8 16C58.7 32 64.3 64 68.2 96.2C72 128.3 74 160.7 73.8 192.8C73.7 225 71.3 257 70 289.2C68.7 321.3 68.3 353.7 69.3 385.8C70.3 418 72.7 450 72.8 482.2C73 514.3 71 546.7 68.2 578.8C65.3 611 61.7 643 59.8 659L58 675L0 675L0 659C0 643 0 611 0 578.8C0 546.7 0 514.3 0 482.2C0 450 0 418 0 385.8C0 353.7 0 321.3 0 289.2C0 257 0 225 0 192.8C0 160.7 0 128.3 0 96.2C0 64 0 32 0 16L0 0Z" fill="#e53850"></path><path d="M54 0L53.8 16C53.7 32 53.3 64 55.2 96.2C57 128.3 61 160.7 61.8 192.8C62.7 225 60.3 257 57.7 289.2C55 321.3 52 353.7 52.3 385.8C52.7 418 56.3 450 58.3 482.2C60.3 514.3 60.7 546.7 57.3 578.8C54 611 47 643 43.5 659L40 675L0 675L0 659C0 643 0 611 0 578.8C0 546.7 0 514.3 0 482.2C0 450 0 418 0 385.8C0 353.7 0 321.3 0 289.2C0 257 0 225 0 192.8C0 160.7 0 128.3 0 96.2C0 64 0 32 0 16L0 0Z" fill="#dc2f59"></path><path d="M47 0L46.2 16C45.3 32 43.7 64 40.5 96.2C37.3 128.3 32.7 160.7 33 192.8C33.3 225 38.7 257 40.7 289.2C42.7 321.3 41.3 353.7 39.5 385.8C37.7 418 35.3 450 34.2 482.2C33 514.3 33 546.7 32 578.8C31 611 29 643 28 659L27 675L0 675L0 659C0 643 0 611 0 578.8C0 546.7 0 514.3 0 482.2C0 450 0 418 0 385.8C0 353.7 0 321.3 0 289.2C0 257 0 225 0 192.8C0 160.7 0 128.3 0 96.2C0 64 0 32 0 16L0 0Z" fill="#d22761"></path><path d="M16 0L17.5 16C19 32 22 64 21.7 96.2C21.3 128.3 17.7 160.7 18.7 192.8C19.7 225 25.3 257 26.5 289.2C27.7 321.3 24.3 353.7 23.7 385.8C23 418 25 450 25.2 482.2C25.3 514.3 23.7 546.7 21.3 578.8C19 611 16 643 14.5 659L13 675L0 675L0 659C0 643 0 611 0 578.8C0 546.7 0 514.3 0 482.2C0 450 0 418 0 385.8C0 353.7 0 321.3 0 289.2C0 257 0 225 0 192.8C0 160.7 0 128.3 0 96.2C0 64 0 32 0 16L0 0Z" fill="#c62368"></path></svg>