<svg id="visual" viewBox="0 0 1000 675" width="1000" height="675" xmlns="http://www.w3.org/2000/svg" xmlns:xlink="http://www.w3.org/1999/xlink" version="1.1"><rect x="0" y="0" width="1000" height="675" fill="#fff"></rect><path d="M437 0L459.5 16C482 32 527 64 553 96.2C579 128.3 586 160.7 565.3 192.8C544.7 225 496.3 257 470.7 289.2C445 321.3 442 353.7 463.8 385.8C485.7 418 532.3 450 525.2 482.2C518 514.3 457 546.7 450.7 578.8C444.3 611 492.7 643 516.8 659L541 675L0 675L0 659C0 643 0 611 0 578.8C0 546.7 0 514.3 0 482.2C0 450 0 418 0 385.8C0 353.7 0 321.3 0 289.2C0 257 0 225 0 192.8C0 160.7 0 128.3 0 96.2C0 64 0 32 0 16L0 0Z" fill="#f7770f"></path><path d="M431 0L421 16C411 32 391 64 404.7 96.2C418.3 128.3 465.7 160.7 477.8 192.8C490 225 467 257 461.5 289.2C456 321.3 468 353.7 475.3 385.8C482.7 418 485.3 450 494.3 482.2C503.3 514.3 518.7 546.7 495.7 578.8C472.7 611 411.3 643 380.7 659L350 675L0 675L0 659C0 643 0 611 0 578.8C0 546.7 0 514.3 0 482.2C0 450 0 418 0 385.8C0 353.7 0 321.3 0 289.2C0 257 0 225 0 192.8C0 160.7 0 128.3 0 96.2C0 64 0 32 0 16L0 0Z" fill="#f76923"></path><path d="M441 0L432.2 16C423.3 32 405.7 64 406.2 96.2C406.7 128.3 425.3 160.7 433.7 192.8C442 225 440 257 423 289.2C406 321.3 374 353.7 370.3 385.8C366.7 418 391.3 450 403.7 482.2C416 514.3 416 546.7 398 578.8C380 611 344 643 326 659L308 675L0 675L0 659C0 643 0 611 0 578.8C0 546.7 0 514.3 0 482.2C0 450 0 418 0 385.8C0 353.7 0 321.3 0 289.2C0 257 0 225 0 192.8C0 160.7 0 128.3 0 96.2C0 64 0 32 0 16L0 0Z" fill="#f55c31"></path><path d="M320 0L331.8 16C343.7 32 367.3 64 357.3 96.2C347.3 128.3 303.7 160.7 298.8 192.8C294 225 328 257 345.5 289.2C363 321.3 364 353.7 366.7 385.8C369.3 418 373.7 450 371.3 482.2C369 514.3 360 546.7 347.8 578.8C335.7 611 320.3 643 312.7 659L305 675L0 675L0 659C0 643 0 611 0 578.8C0 546.7 0 514.3 0 482.2C0 450 0 418 0 385.8C0 353.7 0 321.3 0 289.2C0 257 0 225 0 192.8C0 160.7 0 128.3 0 96.2C0 64 0 32 0 16L0 0Z" fill="#f14f3d"></path><path d="M306 0L312.7 16C319.3 32 332.7 64 327.5 96.2C322.3 128.3 298.7 160.7 299 192.8C299.3 225 323.7 257 324.2 289.2C324.7 321.3 301.3 353.7 289.3 385.8C277.3 418 276.7 450 283 482.2C289.3 514.3 302.7 546.7 293.7 578.8C284.7 611 253.3 643 237.7 659L222 675L0 675L0 659C0 643 0 611 0 578.8C0 546.7 0 514.3 0 482.2C0 450 0 418 0 385.8C0 353.7 0 321.3 0 289.2C0 257 0 225 0 192.8C0 160.7 0 128.3 0 96.2C0 64 0 32 0 16L0 0Z" fill="#ec4347"></path><path d="M269 0L256.2 16C243.3 32 217.7 64 216.2 96.2C214.7 128.3 237.3 160.7 233.8 192.8C230.3 225 200.7 257 190 289.2C179.3 321.3 187.7 353.7 203.5 385.8C219.3 418 242.7 450 240.8 482.2C239 514.3 212 546.7 215.8 578.8C219.7 611 254.3 643 271.7 659L289 675L0 675L0 659C0 643 0 611 0 578.8C0 546.7 0 514.3 0 482.2C0 450 0 418 0 385.8C0 353.7 0 321.3 0 289.2C0 257 0 225 0 192.8C0 160.7 0 128.3 0 96.2C0 64 0 32 0 16L0 0Z" fill="#e53850"></path><path d="M154 0L159.8 16C165.7 32 177.3 64 176.5 96.2C175.7 128.3 162.3 160.7 153 192.8C143.7 225 138.3 257 146.5 289.2C154.7 321.3 176.3 353.7 182.8 385.8C189.3 418 180.7 450 180.5 482.2C180.3 514.3 188.7 546.7 183.2 578.8C177.7 611 158.3 643 148.7 659L139 675L0 675L0 659C0 643 0 611 0 578.8C0 546.7 0 514.3 0 482.2C0 450 0 418 0 385.8C0 353.7 0 321.3 0 289.2C0 257 0 225 0 192.8C0 160.7 0 128.3 0 96.2C0 64 0 32 0 16L0 0Z" fill="#dc2f59"></path><path d="M128 0L121.3 16C114.7 32 101.3 64 96.3 96.2C91.3 128.3 94.7 160.7 98 192.8C101.3 225 104.7 257 109.3 289.2C114 321.3 120 353.7 125 385.8C130 418 134 450 131.3 482.2C128.7 514.3 119.3 546.7 121.2 578.8C123 611 136 643 142.5 659L149 675L0 675L0 659C0 643 0 611 0 578.8C0 546.7 0 514.3 0 482.2C0 450 0 418 0 385.8C0 353.7 0 321.3 0 289.2C0 257 0 225 0 192.8C0 160.7 0 128.3 0 96.2C0 64 0 32 0 16L0 0Z" fill="#d22761"></path><path d="M102 0L92.3 16C82.7 32 63.3 64 54.2 96.2C45 128.3 46 160.7 51.3 192.8C56.7 225 66.3 257 69 289.2C71.7 321.3 67.3 353.7 62.5 385.8C57.7 418 52.3 450 55 482.2C57.7 514.3 68.3 546.7 73 578.8C77.7 611 76.3 643 75.7 659L75 675L0 675L0 659C0 643 0 611 0 578.8C0 546.7 0 514.3 0 482.2C0 450 0 418 0 385.8C0 353.7 0 321.3 0 289.2C0 257 0 225 0 192.8C0 160.7 0 128.3 0 96.2C0 64 0 32 0 16L0 0Z" fill="#c62368"></path></svg>