<svg id="visual" viewBox="0 0 900 450" width="900" height="450" xmlns="http://www.w3.org/2000/svg" xmlns:xlink="http://www.w3.org/1999/xlink" version="1.1"><rect x="0" y="0" width="900" height="450" fill="#ffffff"></rect><path d="M0 294L129 267L257 269L386 308L514 313L643 312L771 335L900 324L900 451L771 451L643 451L514 451L386 451L257 451L129 451L0 451Z" fill="#f7770f"></path><path d="M0 345L129 335L257 327L386 302L514 328L643 353L771 340L900 295L900 451L771 451L643 451L514 451L386 451L257 451L129 451L0 451Z" fill="#f55c31"></path><path d="M0 333L129 332L257 348L386 375L514 352L643 342L771 375L900 341L900 451L771 451L643 451L514 451L386 451L257 451L129 451L0 451Z" fill="#ec4347"></path><path d="M0 387L129 395L257 405L386 389L514 372L643 361L771 363L900 395L900 451L771 451L643 451L514 451L386 451L257 451L129 451L0 451Z" fill="#dc2f59"></path><path d="M0 401L129 407L257 423L386 394L514 417L643 402L771 430L900 393L900 451L771 451L643 451L514 451L386 451L257 451L129 451L0 451Z" fill="#c62368"></path></svg>